<svg width="88" height="32" viewBox="0 0 88 32" fill="none" xmlns="http://www.w3.org/2000/svg">
<path fill-rule="evenodd" clip-rule="evenodd" d="M72.969 6C66.9327 6 62.5505 10.2154 62.5488 16.02C62.5505 21.8946 66.836 25.9983 72.969 26C79.0788 26 83.3476 21.8946 83.3492 16.02C83.3476 10.1221 79.0788 6.00167 72.969 6ZM72.9273 21.998C69.6874 21.998 67.3913 19.4584 67.3913 16.0217C67.3913 12.6033 69.5473 10.0053 72.9223 10.0053H72.9324C76.304 10.0053 78.5051 12.5449 78.5035 16.0217C78.5035 19.4951 76.1339 21.998 72.9273 21.998ZM46.222 12.0735C44.4078 12.2552 42.887 10.7361 43.0688 8.92022C43.2022 7.57622 44.2894 6.49068 45.6334 6.35561C47.4476 6.17385 48.9684 7.69294 48.7866 9.50885C48.6532 10.8529 47.566 11.9384 46.222 12.0735ZM39.327 19.1754L39.3136 19.162L33.7308 24.7448C32.8237 25.652 31.358 25.652 30.4508 24.7448C29.5437 23.8377 29.5437 22.372 30.4508 21.4649L36.0336 15.8821L30.4508 10.2993C29.5437 9.39383 29.5437 7.92643 30.4508 7.01931C31.3546 6.11553 32.827 6.11553 33.7308 7.01931L42.6069 15.8954L39.327 19.1754ZM48.1763 21.4648L44.6012 17.8897L41.3212 21.1697L44.8963 24.7448C45.8001 25.6486 47.2725 25.6486 48.1763 24.7448C49.0834 23.8377 49.0834 22.3703 48.1763 21.4648ZM53.6318 8.76157C53.6318 7.45925 54.6907 6.40039 55.993 6.40039C57.2953 6.40039 58.3542 7.45925 58.3542 8.76157V25.64H53.6318V8.76157ZM19.9563 9.97749V8.74354H19.958C19.958 7.43955 21.0152 6.38236 22.3192 6.38236C23.6231 6.38236 24.6803 7.43955 24.6803 8.74354V25.642H19.958V22.0452C19.958 22.0452 17.3817 25.9988 12.741 26.0022C7.67684 25.9988 4 21.8017 4 16.0205V16.0022C4 10.2209 7.67684 6.02384 12.741 6.02051C17.38 6.02384 19.9563 9.97749 19.9563 9.97749ZM14.4235 21.9985C17.5101 21.9985 19.9563 19.604 19.9563 16.0222V16.0022C19.958 12.422 17.5101 10.0258 14.4235 10.0258H14.4135C11.1452 10.0258 8.84242 12.6672 8.84242 16.0022V16.0222C8.84075 19.3572 11.1452 21.9985 14.4135 21.9985H14.4235Z" fill="url(#paint0_linear_959_12457)"/>
<defs>
<linearGradient id="paint0_linear_959_12457" x1="10.5383" y1="16.0105" x2="98.6356" y2="16.0105" gradientUnits="userSpaceOnUse">
<stop stop-color="#B4E300"/>
<stop offset="1" stop-color="#6EC800"/>
</linearGradient>
</defs>
</svg>
